<svg width="24" height="25" viewBox="0 0 24 25" fill="none" xmlns="http://www.w3.org/2000/svg">
<path fill-rule="evenodd" clip-rule="evenodd" d="M4.5 3.25293C3.67157 3.25293 3 3.9245 3 4.75293V19.7529C3 20.5813 3.67157 21.2529 4.5 21.2529H19.5C20.3284 21.2529 21 20.5813 21 19.7529V4.75293C21 3.9245 20.3284 3.25293 19.5 3.25293H4.5ZM8.52076 7.25565C8.52639 8.2119 7.81061 8.80112 6.96123 8.7969C6.16107 8.79268 5.46357 8.15565 5.46779 7.25706C5.47201 6.4119 6.13998 5.73268 7.00764 5.75237C7.88795 5.77206 8.52639 6.41753 8.52076 7.25565ZM12.2797 10.0147H9.75971H9.7583V18.5745H12.4217V18.3748C12.4217 17.9949 12.4214 17.6149 12.4211 17.2348C12.4203 16.221 12.4194 15.2061 12.4246 14.1926C12.426 13.9465 12.4372 13.6906 12.5005 13.4557C12.7381 12.5782 13.5271 12.0115 14.4074 12.1508C14.9727 12.2393 15.3467 12.567 15.5042 13.1C15.6013 13.4332 15.6449 13.7918 15.6491 14.1392C15.6605 15.1868 15.6589 16.2344 15.6573 17.2821C15.6567 17.6519 15.6561 18.0219 15.6561 18.3917V18.5731H18.328V18.3678C18.328 17.9158 18.3278 17.4639 18.3275 17.012C18.327 15.8825 18.3264 14.753 18.3294 13.6231C18.3308 13.1126 18.276 12.6092 18.1508 12.1156C17.9638 11.3815 17.5771 10.774 16.9485 10.3353C16.5027 10.0231 16.0133 9.82203 15.4663 9.79953C15.404 9.79694 15.3412 9.79355 15.2781 9.79014C14.9984 9.77502 14.7141 9.75966 14.4467 9.81359C13.6817 9.96687 13.0096 10.317 12.5019 10.9343C12.4429 11.0051 12.3852 11.077 12.2991 11.1843L12.2797 11.2086V10.0147ZM5.68164 18.5773H8.33242V10.0203H5.68164V18.5773Z" fill="black"/>
</svg>
