<svg width="24" height="25" viewBox="0 0 24 25" fill="none" xmlns="http://www.w3.org/2000/svg">
<path fill-rule="evenodd" clip-rule="evenodd" d="M16 3.25293H8C5.23858 3.25293 3 5.49151 3 8.25293V16.2529C3 19.0143 5.23858 21.2529 8 21.2529H16C18.7614 21.2529 21 19.0143 21 16.2529V8.25293C21 5.49151 18.7614 3.25293 16 3.25293ZM19.25 16.2529C19.2445 18.0455 17.7926 19.4974 16 19.5029H8C6.20735 19.4974 4.75549 18.0455 4.75 16.2529V8.25293C4.75549 6.46028 6.20735 5.00842 8 5.00293H16C17.7926 5.00842 19.2445 6.46028 19.25 8.25293V16.2529ZM16.75 8.50293C17.3023 8.50293 17.75 8.05521 17.75 7.50293C17.75 6.95065 17.3023 6.50293 16.75 6.50293C16.1977 6.50293 15.75 6.95065 15.75 7.50293C15.75 8.05521 16.1977 8.50293 16.75 8.50293ZM12 7.75293C9.51472 7.75293 7.5 9.76765 7.5 12.2529C7.5 14.7382 9.51472 16.7529 12 16.7529C14.4853 16.7529 16.5 14.7382 16.5 12.2529C16.5027 11.0586 16.0294 9.9125 15.1849 9.06801C14.3404 8.22352 13.1943 7.75027 12 7.75293ZM9.25 12.2529C9.25 13.7717 10.4812 15.0029 12 15.0029C13.5188 15.0029 14.75 13.7717 14.75 12.2529C14.75 10.7341 13.5188 9.50293 12 9.50293C10.4812 9.50293 9.25 10.7341 9.25 12.2529Z" fill="black"/>
</svg>
