<svg width="24" height="25" viewBox="0 0 24 25" fill="none" xmlns="http://www.w3.org/2000/svg">
<path d="M21.593 7.21326C21.4791 6.79066 21.2565 6.40527 20.9474 6.09543C20.6382 5.78559 20.2533 5.56212 19.831 5.44726C18.265 5.01726 12 5.01026 12 5.01026C12 5.01026 5.73599 5.00326 4.16899 5.41426C3.74692 5.53441 3.36282 5.76104 3.05356 6.0724C2.7443 6.38375 2.52028 6.76938 2.40299 7.19226C1.98999 8.75826 1.98599 12.0063 1.98599 12.0063C1.98599 12.0063 1.98199 15.2703 2.39199 16.8203C2.62199 17.6773 3.29699 18.3543 4.15499 18.5853C5.73699 19.0153 11.985 19.0223 11.985 19.0223C11.985 19.0223 18.25 19.0293 19.816 18.6193C20.2385 18.5046 20.6237 18.2816 20.9336 17.9724C21.2436 17.6632 21.4674 17.2785 21.583 16.8563C21.997 15.2913 22 12.0443 22 12.0443C22 12.0443 22.02 8.77926 21.593 7.21326ZM9.99599 15.0153L10.001 9.01526L15.208 12.0203L9.99599 15.0153Z" fill="black"/>
</svg>
